<mxfile host="65bd71144e">
    <diagram id="HGjpQGyzuPOit76AnLuM" name="ページ1">
        <mxGraphModel dx="537" dy="437" grid="1" gridSize="10" guides="1" tooltips="1" connect="1" arrows="1" fold="1" page="1" pageScale="1" pageWidth="827" pageHeight="1169" math="1" shadow="0">
            <root>
                <mxCell id="0"/>
                <mxCell id="1" parent="0"/>
                <mxCell id="2" value="`300[\Omega]`" style="pointerEvents=1;verticalLabelPosition=top;shadow=0;dashed=0;align=center;html=1;verticalAlign=bottom;shape=mxgraph.electrical.resistors.resistor_1;strokeWidth=2;labelPosition=center;fontSize=15;" parent="1" vertex="1">
                    <mxGeometry x="190" y="230" width="100" height="20" as="geometry"/>
                </mxCell>
                <mxCell id="11" style="edgeStyle=none;rounded=0;html=1;entryX=0;entryY=0.5;entryDx=0;entryDy=0;entryPerimeter=0;endArrow=none;endFill=0;strokeWidth=2;" parent="1" target="5" edge="1">
                    <mxGeometry relative="1" as="geometry">
                        <Array as="points">
                            <mxPoint x="440" y="480"/>
                            <mxPoint x="360" y="480"/>
                            <mxPoint x="140" y="480"/>
                        </Array>
                        <mxPoint x="440" y="440" as="sourcePoint"/>
                    </mxGeometry>
                </mxCell>
                <mxCell id="8" value="" style="edgeStyle=none;html=1;endArrow=none;endFill=0;strokeWidth=2;" parent="1" source="4" target="6" edge="1">
                    <mxGeometry relative="1" as="geometry"/>
                </mxCell>
                <mxCell id="12" style="edgeStyle=none;rounded=0;html=1;endArrow=oval;endFill=1;strokeWidth=2;" parent="1" source="4" edge="1">
                    <mxGeometry relative="1" as="geometry">
                        <mxPoint x="360" y="480" as="targetPoint"/>
                    </mxGeometry>
                </mxCell>
                <mxCell id="4" value="1N4736" style="pointerEvents=1;fillColor=strokeColor;verticalLabelPosition=middle;shadow=0;dashed=0;align=right;html=1;verticalAlign=middle;shape=mxgraph.electrical.diodes.schottky_diode;direction=north;strokeWidth=2;labelPosition=left;fontSize=15;" parent="1" vertex="1">
                    <mxGeometry x="330" y="340" width="60" height="100" as="geometry"/>
                </mxCell>
                <mxCell id="13" style="edgeStyle=none;rounded=0;html=1;entryX=0;entryY=0.5;entryDx=0;entryDy=0;entryPerimeter=0;endArrow=none;endFill=0;exitX=1;exitY=0.5;exitDx=0;exitDy=0;exitPerimeter=0;strokeWidth=2;" parent="1" source="5" target="2" edge="1">
                    <mxGeometry relative="1" as="geometry">
                        <Array as="points">
                            <mxPoint x="140" y="240"/>
                        </Array>
                    </mxGeometry>
                </mxCell>
                <mxCell id="5" value="`V_i`" style="verticalLabelPosition=middle;shadow=0;dashed=0;align=right;fillColor=#000000;html=1;verticalAlign=middle;strokeWidth=2;shape=mxgraph.electrical.miscellaneous.monocell_battery;direction=north;labelPosition=left;fontSize=15;" parent="1" vertex="1">
                    <mxGeometry x="110" y="330" width="60" height="100" as="geometry"/>
                </mxCell>
                <mxCell id="10" style="edgeStyle=none;rounded=0;html=1;endArrow=oval;endFill=1;strokeWidth=2;" parent="1" source="6" edge="1">
                    <mxGeometry relative="1" as="geometry">
                        <mxPoint x="360" y="240" as="targetPoint"/>
                    </mxGeometry>
                </mxCell>
                <mxCell id="6" value="A" style="verticalLabelPosition=middle;shadow=0;dashed=0;align=center;html=1;verticalAlign=middle;strokeWidth=2;shape=ellipse;aspect=fixed;fontSize=50;" parent="1" vertex="1">
                    <mxGeometry x="330" y="260" width="60" height="60" as="geometry"/>
                </mxCell>
                <mxCell id="14" style="edgeStyle=none;rounded=0;html=1;entryX=1;entryY=0.5;entryDx=0;entryDy=0;entryPerimeter=0;endArrow=oval;endFill=1;exitX=0.5;exitY=0;exitDx=0;exitDy=0;strokeWidth=2;startArrow=none;startFill=0;" parent="1" source="7" target="16" edge="1">
                    <mxGeometry relative="1" as="geometry">
                        <Array as="points">
                            <mxPoint x="550" y="340"/>
                        </Array>
                        <mxPoint x="440" y="310" as="targetPoint"/>
                    </mxGeometry>
                </mxCell>
                <mxCell id="15" style="edgeStyle=none;rounded=0;html=1;endArrow=oval;endFill=1;exitX=0.5;exitY=1;exitDx=0;exitDy=0;strokeWidth=2;" parent="1" source="7" edge="1">
                    <mxGeometry relative="1" as="geometry">
                        <Array as="points">
                            <mxPoint x="550" y="440"/>
                        </Array>
                        <mxPoint x="440" y="440" as="targetPoint"/>
                    </mxGeometry>
                </mxCell>
                <mxCell id="7" value="V" style="verticalLabelPosition=middle;shadow=0;dashed=0;align=center;html=1;verticalAlign=middle;strokeWidth=2;shape=ellipse;aspect=fixed;fontSize=50;" parent="1" vertex="1">
                    <mxGeometry x="520" y="360" width="60" height="60" as="geometry"/>
                </mxCell>
                <mxCell id="16" value="" style="pointerEvents=1;verticalLabelPosition=bottom;shadow=0;dashed=0;align=center;html=1;verticalAlign=top;shape=stencil(vZTBcoMgFEW/hm0GoZpsO7b5gC66J+alMlFggCTt3xdFM32NpCbtdMaF3IfvHvAC4aWrhQHCqHAGKk/4E2HsKKwUmybILFTqKBY0DpVoISqv52n0BZx0XtvwmsVpzlu9h5Pc+uF7qWqw0sfqKWoZ7ZvyZ0Ifg9o9vKy0UgFFauVQ5Us9NBdSeUQjVWxtgksLHmyUB+p3NPoYRos8jglb32KlD36GV/YnXkbP8aILjtyyaS9eBiW1v7zciGr/ZvVBbScJbReQcx5GguFXFg948SvEM06eBErY8nKnLVzh2cmmiTG7sq1GdAG8KIzlVh8hFQ+egMYdGqkgue55LTDEiv2egt6zEozBcYviDozlt+N2O0S+xLH+JwjcoSjGszti5D8d5qAnghdu3FRk+88uMt+r8ZbuhU8=);direction=south;strokeWidth=2;rotation=-180;flipH=1;" vertex="1" parent="1">
                    <mxGeometry x="410" y="340" width="60" height="100" as="geometry"/>
                </mxCell>
                <mxCell id="18" style="edgeStyle=none;html=1;entryX=1;entryY=0.5;entryDx=0;entryDy=0;entryPerimeter=0;endArrow=none;endFill=0;strokeWidth=2;rounded=0;" edge="1" parent="1" source="17" target="16">
                    <mxGeometry relative="1" as="geometry"/>
                </mxCell>
                <mxCell id="19" style="edgeStyle=none;rounded=0;html=1;entryX=1;entryY=0.5;entryDx=0;entryDy=0;entryPerimeter=0;endArrow=none;endFill=0;strokeWidth=2;" edge="1" parent="1" source="17" target="2">
                    <mxGeometry relative="1" as="geometry">
                        <Array as="points">
                            <mxPoint x="440" y="240"/>
                            <mxPoint x="360" y="240"/>
                        </Array>
                    </mxGeometry>
                </mxCell>
                <mxCell id="17" value="A" style="verticalLabelPosition=middle;shadow=0;dashed=0;align=center;html=1;verticalAlign=middle;strokeWidth=2;shape=ellipse;aspect=fixed;fontSize=50;" vertex="1" parent="1">
                    <mxGeometry x="410" y="260" width="60" height="60" as="geometry"/>
                </mxCell>
            </root>
        </mxGraphModel>
    </diagram>
</mxfile>